<?xml version="1.0" encoding="UTF-8"?><svg id="b" xmlns="http://www.w3.org/2000/svg" width="392.05" height="307.36" viewBox="0 0 392.05 307.36"><g id="c"><g><path d="m110.71,201.06c6.06,3.35,12.3,6.21,18.56,9.02,4.31,1.93,8.83,3.39,13.45,4.27,10.23,1.95,20.56,2.9,30.99,1.78,2.7-.29,5.37-.78,8.06-1.15,8.17-1.13,15.76-4,23.16-7.46,3.21-1.5,6.29-3.29,9.34-5.13,1.87-1.13,3.76-2.19,5.5-3.54,4.73-3.67,6.51-8.5,5.98-14.31-.08-.85-.44-1.7-.76-2.51-2.16-5.34-1.81-10.61.39-15.84.2-.48.37-.97.61-1.43,1.94-3.79.63-7.02-1.78-10.02-1.1-1.37-2.33-2.63-3.44-3.99-1.81-2.2-2.4-4.68-1.83-7.51.68-3.38-.92-6.45-3.98-8.03-2.95-1.52-4.21-4.46-3.46-8.03.85-4.08,2.82-7.71,4.57-11.43,2.85-6.03,5.87-11.96,8.4-18.15,2.41-5.9,2.91-11.83,2.21-18.07-.96-8.51-3.89-16.38-7.71-23.91-2.48-4.91-5.96-9.17-10.69-12.23-1.07-.69-2.08-1.49-3.08-2.29-6.57-5.21-14.1-8.09-22.28-9.68-13.54-2.64-27.01-2.62-40.41.61-4.14,1-8.3,2-12.26,3.63-4.65,1.92-9.25,3.96-13.56,6.59-2.38,1.45-4.59,3.19-7,4.6-2.22,1.3-4.21,2.9-6.14,4.54-5.77,4.92-11.22,10.2-16.58,15.56-.3.3-.62.59-1.11,1.05.02-1.71.55-3.06,1.16-4.36.66-1.41,1.42-2.78,2.2-4.12,3.1-5.32,6.32-10.55,10.28-15.29,1.35-1.62,2.87-3.1,4.2-4.73,3.11-3.82,6.62-7.25,10.34-10.45,1.84-1.58,3.86-2.95,5.72-4.53,2.59-2.2,5.29-4.24,8.21-5.96,5.43-3.2,10.94-6.24,16.75-8.75,4.36-1.88,8.72-3.71,13.27-5.04,19.21-5.58,38.62-6.21,58.21-2.21,6.4,1.31,12.63,3.15,18.7,5.51,3.14,1.22,6.13,2.85,9.21,4.25,5.55,2.52,10.71,5.7,15.68,9.2,4.82,3.4,9.33,7.19,13.62,11.26,5.81,5.51,10.89,11.62,15.53,18.13,3.08,4.33,5.82,8.85,8.18,13.6,2.62,5.26,4.76,10.72,6.76,16.24,4.46,12.32,6.21,25.07,6.23,38.08,0,6.72-.69,13.4-1.88,20.02-.93,5.2-2.07,10.35-3.82,15.33-1.49,4.24-3.12,8.43-4.91,12.57-2.25,5.18-4.94,10.11-7.93,14.89-3.24,5.18-6.94,10.01-10.94,14.63-.94,1.08-1.77,2.26-2.78,3.27-4,4.02-8.19,7.82-12.58,11.41-5.58,4.56-11.6,8.44-17.94,11.81-2.29,1.22-4.71,2.17-7.02,3.35-7.11,3.67-14.74,5.84-22.47,7.63-14.42,3.33-28.96,3.68-43.58,1.53-9.57-1.4-18.87-3.83-27.76-7.63-5.05-2.16-9.92-4.7-14.73-7.37-7.53-4.19-13.75-9.8-18.95-16.61-.67-.88-1.39-1.74-2.09-2.6Zm26.41,16.18c2.56,1.53,5.25,2.81,7.97,4.04,5.46,2.48,11.07,4.57,16.83,6.11,20.74,5.52,41.42,5.28,62.01-1.02,7.94-2.43,15.53-5.64,22.82-9.55,2.55-1.37,5.06-2.83,7.36-4.66,2.4-1.9,5.07-3.47,7.5-5.34,4.47-3.43,8.61-7.24,12.31-11.5.78-.9,1.77-1.59,2.54-2.51,2.74-3.28,5.52-6.51,7.81-10.14,1.85-2.93,3.87-5.75,5.69-8.69,1.2-1.93,2.16-3.99,3.12-6.06,2.27-4.9,4.3-9.87,5.96-15.01,3.18-9.84,4.64-19.97,5.36-30.22.29-4.13,0-8.26-.36-12.41-.92-10.44-2.85-20.65-6.39-30.52-2.29-6.38-4.99-12.58-8.61-18.36-2.1-3.35-4.18-6.71-6.43-9.95-2.75-3.97-5.86-7.66-9.36-11.01-1.41-1.35-2.63-2.89-4.04-4.23-3.09-2.94-6.3-5.76-9.84-8.17-2.53-1.72-4.93-3.65-7.47-5.36-2.15-1.45-4.43-2.68-6.74-3.87-4.98-2.56-10-4.98-15.32-6.77-4.49-1.51-8.95-3.12-13.58-4.13-18.18-3.96-36.26-3.7-54.25,1.36-7.21,2.03-14.21,4.56-20.96,7.78-4.28,2.04-8.31,4.52-12.26,7.15-5.47,3.63-10.5,7.81-15.41,12.14-1.75,1.55-3.27,3.36-4.86,5.1-1.46,1.59-2.86,3.23-4.28,4.86-.18.2-.53.37-.36.85,3.89-3.23,8.1-5.92,12.34-8.53,3.15-1.94,6.52-3.47,9.95-4.91,5.32-2.24,10.75-4.08,16.33-5.43,9.9-2.39,19.94-3.3,30.09-2.37,11.96,1.09,23.46,3.61,33.68,10.52,4.15,2.81,7.39,6.44,10.81,9.94,3.25,3.33,5.08,7.57,6.99,11.76,3.13,6.84,5.22,13.95,6.42,21.37,1.14,7.03.64,13.77-1.97,20.46-2.32,5.97-5.26,11.64-7.93,17.44-1.63,3.55-3.76,6.88-4.69,10.73-.46,1.88-.2,2.68,1.51,3.53,1.81.9,3.03,2.3,3.94,4.04,1.47,2.81,2.09,5.75,1.48,8.92-.34,1.78-.17,1.95,1.61,2.3,2.38.46,4.79.53,7.15,0,3.77-.85,7.32-2.26,10.39-4.7.31-.25.63-.5.97-.7.52-.31,1.07-.34,1.56.07.49.42.56.98.3,1.53-1.01,2.12-2.19,4.18-4.3,5.32-2.31,1.25-4.79,2.19-7.38,2.76-2.31.51-4.66.36-7.38-.03,1.84,1.81,2.5,3.98,3.92,5.66,1.38,1.63,1.73,3.47,1.21,5.49-.45,1.75-1.17,3.39-1.96,5.01-2.19,4.52-2.32,9.1-.47,13.8,1.11,2.82,2.12,5.76,1.74,8.83-.5,4.09-2.32,7.54-5.44,10.37-1.96,1.78-4.2,3.1-6.36,4.56-4.82,3.24-9.85,6.11-15.18,8.39-3.47,1.48-7.08,2.7-10.7,3.78-14.75,4.39-29.71,5.48-44.9,2.6-3.53-.67-6.99-1.61-10.51-2.44Z" fill="#ffa9f7"/><path d="m104.92,103.98c-1.8,1.6-3.32,2.94-4.83,4.29-.12.11-.22.23-.36.32-.5.31-.97,1.27-1.51.72-.44-.45.48-.94.87-1.32,1.32-1.28,2.67-2.51,4.29-4.02-1.1,0-1.91,0-2.71,0-1.68-.02-3.35-.07-5.03-.09-.62,0-1.2-.15-1.18-.86.02-.66.68-.42,1.05-.44,2.31-.11,4.63-.17,6.94-.25.38-.01.78.1.98-.01-1.6-1.71-3.24-3.43-4.84-5.19-.31-.34-1.13-.7-.69-1.17.53-.56.96.27,1.32.59,1.81,1.62,3.58,3.3,5.69,5.26,0-1.64,0-2.95,0-4.26.01-1.8.03-3.59.08-5.39.01-.39-.15-1.01.51-1.03.68-.02.82.52.82,1.09.02,2.28.04,4.55.05,6.83,0,.63,0,1.26,0,2.17,1.53-1.33,2.88-2.54,4.27-3.69.41-.34.91-1.23,1.4-.68.44.5-.48.93-.87,1.31-1.37,1.34-2.78,2.62-4.19,3.94.3.37.69.19,1.01.2,2.75.03,5.51.04,8.27.06.32,0,.64.01.96.04.55.06.72.48.76.93.05.63-.45.55-.83.56-2.83.03-5.67.05-8.5.08-.39,0-.77,0-1.47,0,1.5,1.48,2.8,2.74,4.06,4.04.24.24.83.51.47.92-.34.39-.74-.06-1.02-.31-1.4-1.24-2.77-2.51-4.54-3.75,0,1.65.05,3.3-.03,4.94-.03.59.4,1.65-.54,1.68-.96.03-.6-1.04-.62-1.64-.06-1.86-.02-3.72-.02-5.87Z" fill="#ffa9f7"/><path d="m208.1,225.17c-.52,0-1.04.03-1.55-.01-.41-.04-1.07.11-1.14-.37-.08-.57.63-.5,1-.58,1.98-.46,3.97-.9,5.97-1.28,8-1.51,15.7-3.84,23-7.54,6.77-3.43,13.41-7.04,19.6-11.44.4-.28.89-.82,1.34-.24.43.56-.18.94-.54,1.28-2.18,2.06-4.57,3.87-7.11,5.45-8.19,5.07-16.59,9.72-25.94,12.35-4.78,1.35-9.69,1.99-14.63,2.39Z" fill="#ffa9f7"/><path d="m263.49,89.62c-.55-.17-1.31-.39-2.07-.64-3.74-1.25-7.44-2.66-11.36-3.28-2.35-.37-4.69-.21-6.92.77-.62.27-1.27.48-1.93.63-.79.18-1.54.03-2.01-.7-.5-.78-.13-1.48.4-2.06,1.49-1.63,3.37-2.56,5.55-2.75,6.28-.56,12.24.37,17.57,4.01.79.54,1.55,1.15,2.06,1.98.6.99.05,2.03-1.29,2.05Z" fill="#ffa9f7"/><path d="m250.15,103.56c-1.95-.14-3.97-.59-5.85-1.52-.95-.47-1.74-1.14-2.16-2.15-.33-.79-.31-1.57.31-2.23.61-.65,1.38-.61,2.1-.28,1.29.58,2.67.79,4.04,1.04,1.57.29,3.09.07,4.62-.27.97-.22,1.89-.15,2.41.8.54.97.18,1.88-.5,2.64-1.28,1.42-2.95,1.97-4.97,1.98Z" fill="#ffa9f7"/><path d="m231.8,134.03c-.66-.02-1.42-.16-1.78-.97-.35-.78.07-1.39.59-1.92.96-.97,2.11-1.7,3.22-2.48.57-.4,1.22-.38,1.79.06.63.5.75,1.2.62,1.95-.3,1.74-2.39,3.36-4.43,3.36Z" fill="#ffa9f7"/></g><g><path d="m0,295.51c.5-3.6,2.85-6.1,6.1-6.1,4.45,0,7.05,2.35,10.75,2.35,1.7,0,3.05-.6,5.1-2.45l.2.15c-.5,3.6-2.85,6.1-6.1,6.1-4.45,0-7.15-2.35-10.75-2.35-1.7,0-3.05.6-5.1,2.45l-.2-.15Z" fill="#ffa9f7"/><path d="m56.85,288.21c0-4.15-.1-8.1-.25-11.3-.05-.7-.1-1.3-.1-1.8-3.2-.05-4.4-.05-5.2-.05-2.55,0-4.75.3-5.8.45,0,0-.15-1.1-.15-2,0-1,.2-2.15,1.15-2.15,0,0,16.8.25,21.85.25,2.45,0,4.6-.35,5.45-.5,0,0,.2,1.25.2,2.5,0,1.1-.4,1.65-.95,1.65,0,0-4.75-.05-10.25-.1-.05,4.05-.2,7.8-.2,11.7,0,6.55,0,13.1.85,19.75-1.25.2-2.3.5-3.35.5-1.75,0-3.25-.7-3.25-3.4v-15.5Z" fill="#ffa9f7"/><path d="m83.95,292.76c0-3-.2-13.5-.3-15.9-.25-4.85-.5-5.3-.5-5.3.85-.25,1.95-.45,2.75-.45,2.25,0,3.95,1.15,3.95,3.1s-.05,7.35-.1,12.3c1.95.15,5.05.2,8.05.2,3.45,0,7.25-.1,9.65-.2-.05-3.55-.15-6.85-.25-9.65-.2-4.85-.5-5.3-.5-5.3.85-.25,1.95-.45,2.75-.45,2.25,0,3.95,1.15,3.95,3.1,0,4.35-.2,8.45-.2,12.65,0,6.1.2,17.55.65,19.75-1.3.2-1.9.5-3.45.5-2.5,0-3.2-1.55-3.2-4.15,0-3.8.2-8.55.25-13.3-2.25-.15-5.55-.2-8.6-.2-3.25,0-6.8.1-9.15.2v5c0,2.8.2,5.85.2,9.05,0,2.7-1.5,3.4-3.25,3.4-1.05,0-2.1-.3-3.35-.5,0,0,.65-1.4.65-13.85Z" fill="#ffa9f7"/><path d="m127.8,292.76c0-3-.2-13.5-.3-15.9-.25-4.85-.5-5.25-.5-5.25h9.2c7.65,0,11.05-.5,11.05-.5-.3,2.45-.45,4.15-4.05,4.15-5.95,0-9.5-.8-9.5-.8,0,2.05-.05,7.35-.1,12.3h7.7c2.05,0,2.95-.5,2.95-.5-.1,2.35-.4,3.7-3,3.7s-7.7-.3-7.7-.3v5.2c0,2.7.15,5.4.2,8.45l9.15-.25c3.25-.1,5.45-.45,6.7-1.1.05.55.05,1,.05,1.4,0,3.2-1.1,3.5-4.75,3.5l-17.65-.25s.55-1.4.55-13.85Z" fill="#ffa9f7"/><path d="m176.7,292.76c0-3-.2-13.5-.3-15.9-.25-4.85-.5-5.25-.5-5.25.6-.2,1.85-.4,2.9-.4,1.7,0,3.4.15,3.85.95.6,1.15,1.35,2.4,2.1,3.75l6.4,11.3c1.15,2.05,2,3.75,2.35,4.7h.25c1.05-2.85,5.95-11.7,9.2-18,1-1.95,2.05-2.7,3.85-2.7.8,0,1.8,0,3.05.25,0,4.35-.05,11.2-.05,15.4,0,6.55,0,13.1.85,19.75-1.25.2-2.3.5-3.35.5-1.75,0-3.25-.7-3.25-3.4v-25.5l-.2-.15c-.3.8-1.2,2.4-2.3,4.5l-5.05,9.65c-1.45,2.75-3.05,8-3.05,8h-.8c-.45,0-.9-.05-1.05-.35-1.15-2.65-2.85-5.6-4.45-8.35l-4.15-7.2c-1.45-2.5-2.65-4.6-3.25-6l-.2.2c0,7.8.45,16.95.45,25.15,0,2.7-.1,3.4-1.85,3.4-1.05,0-2.2-.5-2.2-.5,0,0,.75-1.35.75-13.8Z" fill="#ffa9f7"/><path d="m239.95,270.86c11.55,0,17.4,8.05,17.4,16.4,0,10.25-6.2,20.1-18.1,20.1s-17.4-8.45-17.4-17.4c0-9.85,6.2-19.1,18.1-19.1Zm0,33.75c7.15,0,10.95-8.15,10.95-16.15,0-7.4-4.05-14.85-11.7-14.85-7.15,0-10.9,7.6-10.9,15.15,0,8,4.1,15.85,11.65,15.85Z" fill="#ffa9f7"/><path d="m285,270.86c11.55,0,17.4,8.05,17.4,16.4,0,10.25-6.2,20.1-18.1,20.1s-17.4-8.45-17.4-17.4c0-9.85,6.2-19.1,18.1-19.1Zm0,33.75c7.15,0,10.95-8.15,10.95-16.15,0-7.4-4.05-14.85-11.7-14.85-7.15,0-10.9,7.6-10.9,15.15,0,8,4.1,15.85,11.65,15.85Z" fill="#ffa9f7"/><path d="m314.5,292.76c0-3-.2-13.5-.3-15.9-.25-4.85-.5-5.25-.5-5.25.6-.2,1.5-.4,2.55-.4s2.1.1,2.6.85c1.35,2,3.2,4.45,5.3,6.95l9.7,11.7c2.55,3.1,4.5,5.6,5,6.65l.2-.2c-.2-3.95-.15-15.15-.4-20.3-.25-4.85-.5-5.3-.5-5.3,0,0,.85-.45,1.85-.45,2.15,0,2.3,1.05,2.3,2.85,0,6.05-.25,11.85-.25,19.7,0,5.6.05,11.15.45,12.95,0,0-1.1.3-2.45.3-.75,0-1.7-.35-2.35-1.35-1.25-1.95-3.2-4.45-5.5-7.2l-9.9-11.85c-2.6-3.15-4.5-5.6-4.75-6.55l-.2.2c0,7.8.45,15.3.45,23.5,0,2.7-.1,3.4-1.85,3.4-1.05,0-2.2-.5-2.2-.5,0,0,.75-1.35.75-13.8Z" fill="#ffa9f7"/><path d="m369.9,295.51c.5-3.6,2.85-6.1,6.1-6.1,4.45,0,7.05,2.35,10.75,2.35,1.7,0,3.05-.6,5.1-2.45l.2.15c-.5,3.6-2.85,6.1-6.1,6.1-4.45,0-7.15-2.35-10.75-2.35-1.7,0-3.05.6-5.1,2.45l-.2-.15Z" fill="#ffa9f7"/></g></g></svg>